<svg xmlns="http://www.w3.org/2000/svg" width="1350" height="977" viewBox="0 0 1350 977" version="1.1"><path d="M 459 231.328 C 459 231.508, 460.175 234.545, 461.612 238.078 C 464.214 244.476, 472 273.796, 472 277.198 C 472 278.897, 468.467 278.999, 401.750 279.243 L 331.500 279.500 331.219 291.750 L 330.938 304 403.469 304 L 476 304 475.980 314.750 C 475.962 324.427, 475.011 334.635, 473.417 342.250 L 472.841 345 350.921 345 L 229 345 229 357.500 L 229 370 347 370 C 440.734 370, 465 370.257, 464.998 371.250 C 464.994 373.548, 454.374 393.715, 448.589 402.410 L 442.873 411 377.437 411 L 312 411 312 423.500 L 312 436 366.250 436.044 L 420.500 436.089 414 442.182 C 403.599 451.933, 387.425 464.831, 374.100 474 C 354.231 487.673, 335.277 501.920, 324 511.661 C 255.811 570.558, 231.950 642.242, 254.153 721.500 C 255.847 727.550, 258.354 735.313, 259.723 738.750 L 262.213 745 276.119 745 L 290.025 745 286.633 738.250 C 283.195 731.407, 277.870 715.933, 275.969 707.254 C 275.395 704.639, 274.688 701.712, 274.396 700.750 C 273.894 699.096, 277.285 699, 335.933 699 L 398 699 398 686.500 L 398 674 334.617 674 L 271.233 674 270.673 671.859 C 270.090 669.628, 271.470 645.280, 272.442 640.654 C 272.749 639.194, 273.234 636.875, 273.519 635.500 L 274.038 633 396.019 633 L 518 633 518 620.500 L 518 608 400 608 C 335.100 608, 282 607.788, 282 607.529 C 282 604.547, 292.810 584.994, 300.389 574.266 L 305.500 567.033 371.250 567.016 L 437 567 437 554.500 L 437 542 382.750 541.958 L 328.500 541.916 335.784 535.014 C 346.711 524.660, 359.660 514.538, 382.309 498.646 C 407.098 481.252, 419.907 470.985, 434.882 456.506 C 473.805 418.868, 494.729 378.435, 499.938 330.789 C 502.501 307.353, 499.718 282.139, 490.919 249.072 C 489.247 242.787, 487.254 236.150, 486.490 234.322 L 485.102 231 472.051 231 C 464.873 231, 459 231.147, 459 231.328 M 610 488.500 L 610 604 642.489 604 L 674.978 604 675.239 562.750 L 675.500 521.500 712.750 521.238 L 750 520.976 750 492.988 L 750 465 712.500 465 L 675 465 675 447 L 675 429 718.500 429 L 762 429 762 401 L 762 373 686 373 L 610 373 610 488.500 M 794 488.500 L 794 604 826.992 604 L 859.985 604 860.242 543.100 L 860.500 482.200 878 515.303 C 887.625 533.509, 898.337 553.813, 901.804 560.423 C 905.271 567.033, 908.257 572.591, 908.440 572.773 C 908.623 572.956, 914.295 562.619, 921.046 549.803 C 945.149 504.039, 956.159 483.486, 957.073 482.550 C 957.643 481.966, 958 505.178, 958 542.800 L 958 604 990.500 604 L 1023 604 1023 488.487 L 1023 372.975 987.428 373.237 L 951.856 373.500 930.678 411.935 C 919.030 433.074, 909.137 450.399, 908.694 450.435 C 908.251 450.471, 899.831 435.875, 889.983 418 C 880.136 400.125, 870.474 382.688, 868.514 379.250 L 864.949 373 829.475 373 L 794 373 794 488.500 M 1055 488.514 L 1055 604.027 1087.750 603.764 L 1120.500 603.500 1120.754 488.250 L 1121.008 373 1088.004 373 L 1055 373 1055 488.514" stroke="none" fill="#6d367d" fill-rule="evenodd"/><path d="M 0 488.501 L 0 977.001 675.250 976.751 L 1350.500 976.500 1350.751 488.250 L 1351.002 0 675.501 0 L 0 0 0 488.501 M 0.496 489 C 0.496 757.675, 0.610 867.588, 0.750 733.250 C 0.890 598.913, 0.890 379.088, 0.750 244.750 C 0.610 110.413, 0.496 220.325, 0.496 489 M 459 231.328 C 459 231.508, 460.175 234.545, 461.612 238.078 C 464.214 244.476, 472 273.796, 472 277.198 C 472 278.897, 468.467 278.999, 401.750 279.243 L 331.500 279.500 331.219 291.750 L 330.938 304 403.469 304 L 476 304 475.980 314.750 C 475.962 324.427, 475.011 334.635, 473.417 342.250 L 472.841 345 350.921 345 L 229 345 229 357.500 L 229 370 347 370 C 440.734 370, 465 370.257, 464.998 371.250 C 464.994 373.548, 454.374 393.715, 448.589 402.410 L 442.873 411 377.437 411 L 312 411 312 423.500 L 312 436 366.250 436.044 L 420.500 436.089 414 442.182 C 403.599 451.933, 387.425 464.831, 374.100 474 C 354.231 487.673, 335.277 501.920, 324 511.661 C 255.811 570.558, 231.950 642.242, 254.153 721.500 C 255.847 727.550, 258.354 735.313, 259.723 738.750 L 262.213 745 276.119 745 L 290.025 745 286.633 738.250 C 283.195 731.407, 277.870 715.933, 275.969 707.254 C 275.395 704.639, 274.688 701.712, 274.396 700.750 C 273.894 699.096, 277.285 699, 335.933 699 L 398 699 398 686.500 L 398 674 334.617 674 L 271.233 674 270.673 671.859 C 270.090 669.628, 271.470 645.280, 272.442 640.654 C 272.749 639.194, 273.234 636.875, 273.519 635.500 L 274.038 633 396.019 633 L 518 633 518 620.500 L 518 608 400 608 C 335.100 608, 282 607.788, 282 607.529 C 282 604.547, 292.810 584.994, 300.389 574.266 L 305.500 567.033 371.250 567.016 L 437 567 437 554.500 L 437 542 382.750 541.958 L 328.500 541.916 335.784 535.014 C 346.711 524.660, 359.660 514.538, 382.309 498.646 C 407.098 481.252, 419.907 470.985, 434.882 456.506 C 473.805 418.868, 494.729 378.435, 499.938 330.789 C 502.501 307.353, 499.718 282.139, 490.919 249.072 C 489.247 242.787, 487.254 236.150, 486.490 234.322 L 485.102 231 472.051 231 C 464.873 231, 459 231.147, 459 231.328 M 610 488.500 L 610 604 642.489 604 L 674.978 604 675.239 562.750 L 675.500 521.500 712.750 521.238 L 750 520.976 750 492.988 L 750 465 712.500 465 L 675 465 675 447 L 675 429 718.500 429 L 762 429 762 401 L 762 373 686 373 L 610 373 610 488.500 M 794 488.500 L 794 604 826.992 604 L 859.985 604 860.242 543.100 L 860.500 482.200 878 515.303 C 887.625 533.509, 898.337 553.813, 901.804 560.423 C 905.271 567.033, 908.257 572.591, 908.440 572.773 C 908.623 572.956, 914.295 562.619, 921.046 549.803 C 945.149 504.039, 956.159 483.486, 957.073 482.550 C 957.643 481.966, 958 505.178, 958 542.800 L 958 604 990.500 604 L 1023 604 1023 488.487 L 1023 372.975 987.428 373.237 L 951.856 373.500 930.678 411.935 C 919.030 433.074, 909.137 450.399, 908.694 450.435 C 908.251 450.471, 899.831 435.875, 889.983 418 C 880.136 400.125, 870.474 382.688, 868.514 379.250 L 864.949 373 829.475 373 L 794 373 794 488.500 M 1055 488.514 L 1055 604.027 1087.750 603.764 L 1120.500 603.500 1120.754 488.250 L 1121.008 373 1088.004 373 L 1055 373 1055 488.514" stroke="none" fill="#fbfbfb" fill-rule="evenodd"/></svg>